<?xml version="1.0" encoding="UTF-8" standalone="no"?>
<!-- Created with Inkscape (http://www.inkscape.org/) -->

<svg
   width="164.19841mm"
   height="44.050289mm"
   viewBox="0 0 164.19841 44.050289"
   version="1.1"
   id="svg1"
   sodipodi:docname="core_logo_light.svg"
   inkscape:export-filename="core_logo_light.png"
   inkscape:export-xdpi="96"
   inkscape:export-ydpi="96"
   xmlns:inkscape="http://www.inkscape.org/namespaces/inkscape"
   xmlns:sodipodi="http://sodipodi.sourceforge.net/DTD/sodipodi-0.dtd"
   xmlns="http://www.w3.org/2000/svg"
   xmlns:svg="http://www.w3.org/2000/svg">
  <sodipodi:namedview
     id="namedview1"
     pagecolor="#ffffff"
     bordercolor="#000000"
     borderopacity="0.25"
     inkscape:showpageshadow="2"
     inkscape:pageopacity="0.0"
     inkscape:pagecheckerboard="0"
     inkscape:deskcolor="#d1d1d1"
     inkscape:document-units="mm">
    <inkscape:page
       x="0"
       y="0"
       width="164.19841"
       height="44.050289"
       id="page2"
       margin="0"
       bleed="0" />
  </sodipodi:namedview>
  <defs
     id="defs1">
    <rect
       x="69.833496"
       y="149.01091"
       width="442.89453"
       height="175.45502"
       id="rect1" />
  </defs>
  <g
     id="layer1">
    <path
       id="rect1-2"
       style="fill:#f00000;fill-opacity:1;fill-rule:evenodd;stroke:none;stroke-width:0.856511;stroke-linecap:square;stroke-miterlimit:18.9;stroke-dasharray:3.42604, 3.42604;paint-order:stroke fill markers"
       d="M 14.812533,7.9524862 V 34.483167 H 41.34373 V 7.9524862 Z M 31.932935,19.343005 h 0.528649 v 2.385384 c 1.319645,-1.59013 2.578268,-2.385384 3.774964,-2.385384 0.614741,0 1.143336,0.155686 1.58595,0.467155 0.442613,0.303273 0.79501,0.807666 1.057299,1.512569 0.180324,0.491793 0.270268,1.245506 0.270268,2.261878 v 4.807458 c 0,0.7131 0.05733,1.196982 0.172083,1.451075 0.09016,0.204913 0.233747,0.364288 0.430464,0.47904 0.204914,0.114752 0.577823,0.172599 1.118795,0.172599 v 0.442351 h -5.569686 v -0.442351 h 0.233578 c 0.524579,0 0.889593,-0.07836 1.094507,-0.234094 0.21311,-0.163931 0.360384,-0.401149 0.44235,-0.712618 0.03279,-0.122948 0.04961,-0.508474 0.04961,-1.156002 v -4.610571 c 0,-1.024569 -0.13569,-1.76618 -0.406177,-2.225187 -0.262289,-0.467203 -0.708835,-0.700732 -1.33997,-0.700732 -0.975389,0 -1.946841,0.5328 -2.914034,1.598352 v 5.938138 c 0,0.76228 0.04523,1.233544 0.135393,1.413868 0.114751,0.2377 0.270437,0.413898 0.467155,0.52865 0.204913,0.106555 0.614641,0.160196 1.229382,0.160196 v 0.442351 h -5.569169 v -0.442351 h 0.24598 c 0.573758,0 0.958768,-0.143585 1.155485,-0.430464 0.204913,-0.295076 0.307475,-0.852595 0.307475,-1.67225 v -4.180106 c 0,-1.352431 -0.03313,-2.176091 -0.0987,-2.471167 -0.05738,-0.295076 -0.151526,-0.495992 -0.282671,-0.602547 -0.122948,-0.106556 -0.290734,-0.159681 -0.503845,-0.159681 -0.229503,0 -0.504057,0.06102 -0.823722,0.183969 L 28.53986,20.720182 Z" />
    <text
       xml:space="preserve"
       style="font-size:25.1798px;line-height:1;font-family:'Times New Roman';-inkscape-font-specification:'Times New Roman, ';text-align:center;letter-spacing:0px;writing-mode:lr-tb;direction:ltr;text-anchor:middle;fill:#f00000;fill-opacity:1;fill-rule:evenodd;stroke:none;stroke-width:0.999262;stroke-linecap:square;stroke-miterlimit:18.9;stroke-dasharray:none;stroke-opacity:1;paint-order:stroke fill markers"
       x="71.176994"
       y="30.592888"
       id="text3-8"><tspan
         id="tspan2-8"
         style="letter-spacing:0px;fill:#f00000;fill-opacity:1;stroke-width:0.999262"
         x="71.176994"
         y="30.592888">ewton</tspan></text>
    <text
       xml:space="preserve"
       transform="matrix(0.26458333,0,0,0.26458333,50.802062,-24.460311)"
       id="text1"
       style="font-size:32px;line-height:1;font-family:'Times New Roman';-inkscape-font-specification:'Times New Roman, ';text-align:center;letter-spacing:0px;writing-mode:lr-tb;direction:ltr;white-space:pre;shape-inside:url(#rect1);fill:#1a1a1a;fill-rule:evenodd;stroke:none;stroke-width:5.29134;stroke-linecap:square;stroke-miterlimit:18.9;paint-order:stroke fill markers"><tspan
         x="252.15625"
         y="175.10089"
         id="tspan2"><tspan
           style="font-family:Helvetica;-inkscape-font-specification:Helvetica"
           id="tspan1">Core 
</tspan></tspan><tspan
         x="226.38281"
         y="208.78619"
         id="tspan8"><tspan
           style="font-family:Helvetica;-inkscape-font-specification:Helvetica"
           id="tspan7">   Utilities</tspan></tspan></text>
    <path
       style="fill:none;fill-rule:evenodd;stroke:#000000;stroke-width:0.7;stroke-linecap:square;stroke-miterlimit:18.9;stroke-dasharray:none;stroke-opacity:1;paint-order:markers fill stroke"
       d="m 110.34918,7.9522475 c 0,26.5311365 0,26.5311365 0,26.5311365"
       id="path1" />
  </g>
</svg>
